<svg xmlns="http://www.w3.org/2000/svg" fill="none" viewBox="0 0 22 22"><defs/><path fill="#A1A2A5" d="M2 0h18c.542 0 1 .208 1.375.625C21.792 1 22 1.458 22 2v18c0 .542-.208 1.02-.625 1.438A1.87 1.87 0 0120 22H2c-.542 0-1.02-.188-1.438-.563A2.086 2.086 0 010 20V2C0 1.458.188 1 .563.625.978.208 1.458 0 2 0zm0 2v18h9.688v-6.75H9.062v-3h2.626V8c0-1.25.354-2.23 1.062-2.938C13.458 4.354 14.396 4 15.563 4c1.083 0 1.854.042 2.312.125v2.75H16.25c-.542 0-.917.125-1.125.375-.208.208-.313.563-.313 1.063v1.937h2.938l-.375 3h-2.563V20H20V2H2z"/></svg>