<svg xmlns="http://www.w3.org/2000/svg" fill="none" viewBox="0 0 22 22"><defs/><path fill="#A1A2A5" d="M3 0h16c.833 0 1.542.292 2.125.875S22 2.167 22 3v16c0 .833-.292 1.542-.875 2.125A2.893 2.893 0 0119 22H3a2.893 2.893 0 01-2.125-.875A2.893 2.893 0 010 19V3C0 2.167.292 1.458.875.875A2.893 2.893 0 013 0zm13 3v3h3V3h-3zm-2.188 5.188C13.063 7.396 12.126 7 11 7c-1.125 0-2.083.396-2.875 1.188C7.375 8.938 7 9.874 7 11c0 1.125.375 2.083 1.125 2.875C8.917 14.625 9.875 15 11 15s2.063-.375 2.813-1.125C14.604 13.083 15 12.125 15 11s-.396-2.063-1.188-2.813zM2 9v10c0 .667.333 1 1 1h16c.667 0 1-.333 1-1V9h-3.375c.25.667.375 1.333.375 2 0 1.667-.583 3.083-1.75 4.25C14.083 16.417 12.667 17 11 17c-1.667 0-3.083-.583-4.25-1.75C5.583 14.083 5 12.667 5 11c0-.667.125-1.333.375-2H2z"/></svg>