<svg xmlns="http://www.w3.org/2000/svg" fill="none" viewBox="0 0 22 22"><defs/><path fill="#A1A2A5" d="M2.5 0h17c.667 0 1.25.25 1.75.75S22 1.833 22 2.5v17c0 .667-.25 1.25-.75 1.75s-1.083.75-1.75.75h-17c-.667 0-1.25-.25-1.75-.75S0 20.167 0 19.5v-17C0 1.833.25 1.25.75.75S1.833 0 2.5 0zm0 2c-.333 0-.5.167-.5.5v17c0 .333.167.5.5.5h17c.333 0 .5-.167.5-.5v-17c0-.333-.167-.5-.5-.5h-17zm1.75 2.25c.333-.333.73-.5 1.188-.5.458 0 .854.167 1.187.5.333.333.5.73.5 1.188 0 .458-.167.854-.5 1.187-.333.333-.73.5-1.188.5-.458 0-.854-.167-1.187-.5-.333-.333-.5-.73-.5-1.188 0-.458.167-.854.5-1.187zm10.25 4c1.375 0 2.292.396 2.75 1.188.5.75.75 1.854.75 3.312V18h-2.938v-4.625c0-1.667-.52-2.5-1.562-2.5-1.167 0-1.75.813-1.75 2.438V18H8.812V8.5h2.813v1.313h.063C12.229 8.77 13.166 8.25 14.5 8.25zM4 8.5h3V18H4V8.5z"/></svg>