<svg xmlns="http://www.w3.org/2000/svg" fill="none" viewBox="0 0 22 22"><defs/><path fill="#A1A2A5" d="M22 3.576a9.553 9.553 0 01-2.234 2.44v.595c0 1.586-.287 3.153-.86 4.7a14.925 14.925 0 01-2.463 4.283c-1.032 1.31-2.387 2.36-4.068 3.154-1.642.793-3.457 1.19-5.443 1.19-2.52 0-4.831-.695-6.932-2.083.344.04.707.06 1.089.06 2.1 0 3.972-.675 5.614-2.023-.993 0-1.871-.298-2.635-.893a5.03 5.03 0 01-1.604-2.38c.267.08.553.12.859.12.42 0 .821-.06 1.203-.179a4.625 4.625 0 01-2.635-1.606A4.678 4.678 0 01.859 7.979v-.06c.65.357 1.337.556 2.063.595C1.585 7.563.917 6.254.917 4.588c0-.833.21-1.626.63-2.38 2.406 3.094 5.5 4.74 9.281 4.938a5.104 5.104 0 01-.114-1.07c0-1.31.439-2.42 1.317-3.333.879-.912 1.948-1.368 3.209-1.368 1.298 0 2.387.496 3.265 1.487a8.217 8.217 0 002.865-1.13c-.344 1.11-.993 1.963-1.948 2.558A10.004 10.004 0 0022 3.576z"/></svg>